<?xml version="1.0" encoding="utf-8"?>
<!-- Generator: Adobe Illustrator 23.0.3, SVG Export Plug-In . SVG Version: 6.00 Build 0)  -->
<svg version="1.1" id="Layer_1" xmlns="http://www.w3.org/2000/svg" xmlns:xlink="http://www.w3.org/1999/xlink" x="0px" y="0px"
	 width="1035.6px" height="355.7px" viewBox="0 0 1035.6 355.7" style="enable-background:new 0 0 1035.6 355.7;"
	 xml:space="preserve">
<style type="text/css">
	.st0{fill:#CC0000;}
	.st1{fill:#EE0000;}
	.st2{fill:#A30000;}
</style>
<title>Logo-Red_Hat-OpenShift_Container_Storage-A-Standard-SVG</title>
<path d="M238.9,225.2c-21.2,0-37.9-16.5-37.9-37.5s16.6-37.6,37.9-37.6s38,16.5,38,37.6S260.2,225.2,238.9,225.2z M238.9,160.2
	c-15.1,0-26.7,11.9-26.7,27.5s11.6,27.4,26.7,27.4s26.8-12,26.8-27.4S254.1,160.2,238.9,160.2z"/>
<path d="M287.2,171.1h10.3v5c4.5-3.8,10.3-5.9,16.2-5.8c15.1,0,26.7,12.1,26.7,27.2s-11.6,27.4-27,27.4c-5.7,0-11.2-1.8-15.8-5.2
	v25.9h-10.4V171.1z M297.6,185.6v24.1c3.8,4,9.1,6.2,14.7,6.1c10.3,0,18-7.9,18-18.2c0-10.5-7.9-18.3-18-18.3
	C306.1,179.3,301,181.6,297.6,185.6L297.6,185.6z"/>
<path d="M374.5,170.3c14.6,0,25.6,12.1,25.6,27.7v3h-41.8c1.3,8.8,9,15.3,17.9,15.2c4.9,0.1,9.6-1.6,13.4-4.7l6.7,6.6
	c-5.8,4.7-13,7.2-20.5,7c-15.6,0-27.8-12-27.8-27.4C347.9,182.3,359.5,170.3,374.5,170.3z M358.3,193.2h31.4
	c-1.5-8.1-7.8-14.1-15.5-14.1C366.1,179,359.9,184.8,358.3,193.2L358.3,193.2z"/>
<path d="M409.8,171.1h10.4v5.3c4.2-4.2,10-6.5,15.9-6.3c12.2,0,20.6,8.5,20.6,20.7V224h-10.3v-31.5c0-8.2-5-13.4-13.2-13.4
	c-5.2-0.2-10.2,2.4-13,6.9v38h-10.4L409.8,171.1z"/>
<path d="M470.2,204.3c7.8,7.7,15.8,11.4,25.1,11.4c10.6,0,17.7-5,17.7-12.2c0-6.3-4-9.7-14.8-11.4l-12.2-2
	c-13.5-2.3-19.9-8.6-19.9-18.9c0-12.6,10.5-20.9,26.8-20.9c10.6,0.1,20.9,3.5,29.3,9.9l-6,8.3c-7.9-6-15.8-8.9-23.8-8.9
	c-9.5,0-15.8,4.4-15.8,10.8c0,5.8,3.6,8.7,13,10.3l11.8,1.9c15.5,2.5,22.4,8.9,22.4,20.2c0,13.3-11.7,22.4-29,22.4
	c-11.7,0-23-4.7-31.2-13.1L470.2,204.3z"/>
<path d="M569.1,192.5c0-8.2-5-13.4-13.2-13.4c-5.2-0.2-10.2,2.4-13,6.9v38h-10.4v-72.8l10.4-2.3v27.5c4.2-4.2,10-6.5,15.9-6.3
	c12.2,0,20.6,8.5,20.6,20.7V224h-10.3V192.5z"/>
<path d="M590.2,156.1c0-3.6,2.9-6.4,6.5-6.4c3.6,0.1,6.3,3.1,6.2,6.7c-0.1,3.4-2.8,6.1-6.2,6.2C593.1,162.6,590.3,159.7,590.2,156.1
	z M601.9,224h-10.4v-52.9h10.4V224z"/>
<path d="M622,171.1v-8c0-10.7,6.1-17.1,18-17.1c2.5,0,5,0.3,7.5,0.9v9c-2.1-0.7-4.3-1-6.5-0.9c-5.8,0-8.6,2.5-8.6,8.2v7.8h15.2v8.7
	h-15.2V224H622v-44.2h-12.3v-8.7H622z"/>
<path d="M663.2,179.8H652v-8.7h11.2v-13.5l10.3-2.5v16h15.6v8.7h-15.6v28.7c0,5.4,2.2,7.4,7.8,7.4c2.6,0.1,5.2-0.4,7.6-1.2v8.7
	c-3.2,1-6.5,1.5-9.9,1.6c-10.3,0-15.8-4.9-15.8-14L663.2,179.8z"/>
<path d="M262.5,315.8l5.2,5.4c-7.5,7.7-17.8,12.1-28.6,12c-20.7,0.3-37.8-16.2-38.2-36.9c-0.3-20.7,16.2-37.8,36.9-38.2
	c0.4,0,0.8,0,1.2,0c11.2,0,21.6,4.3,28.8,12l-5.3,5.6c-6.1-6.6-14.6-10.2-23.5-10.2c-16.9,0-29.6,13.1-29.6,30.2
	s12.8,30.2,29.9,30.2C248.3,325.8,256.9,322.2,262.5,315.8z"/>
<path d="M300.6,278.9c14.8,0,26.5,11.9,26.5,27S315.4,333,300.6,333S274,321.2,274,305.9S285.7,278.9,300.6,278.9z M300.6,285.8
	c-10.6,0-19,8.8-19,20.2s8.3,20.3,19,20.3s18.9-8.9,18.9-20.3S311.2,285.8,300.6,285.8z"/>
<path d="M337.7,279.9h7.7v6c4-4.7,9.6-7.1,16.3-7.1c12,0,20.2,8.2,20.2,20.2v33h-7.6v-31.4c0-9.1-5.5-15-14.6-15
	c-5.9-0.2-11.4,2.9-14.4,8V332h-7.7V279.9z"/>
<path d="M399.3,286.5h-11.2v-6.5h11.2v-13.2l7.6-2v15.2h15.7v6.5h-15.7v31.9c0,5.6,2.3,7.8,8,7.8c2.6,0.1,5.2-0.4,7.6-1.4v6.8
	c-3,0.9-6,1.4-9.1,1.4c-9.1,0-14-4.5-14-12.6L399.3,286.5z"/>
<path d="M428,317.3c0-10.6,9.1-15.9,20.8-15.9c5.3,0,10.5,1.2,15.3,3.5V298c0-8.4-4.8-12.6-13.8-12.6c-5.3,0-10.4,1.6-16.3,4.6
	l-2.9-5.9c6.9-3.3,13.1-5.2,20-5.2c13.1,0,20.6,6.4,20.6,18.1v35h-7.5v-5.1c-4.7,4-10.7,6.1-16.9,6C435.9,333,428,326.6,428,317.3z
	 M448.6,326.9c5.8,0.2,11.4-2,15.5-6V311c-4.2-2.7-8.9-4.1-15.1-4.1c-8,0-13.6,3.9-13.6,10.1C435.4,323.1,441,326.9,448.6,326.9
	L448.6,326.9z"/>
<path d="M483.1,264.8c0-2.9,2.3-5.2,5.2-5.2c2.9,0,5.2,2.3,5.2,5.2c0,0,0,0,0,0c0,2.9-2.3,5.2-5.2,5.2
	C485.5,270,483.1,267.6,483.1,264.8C483.1,264.8,483.1,264.8,483.1,264.8z M492.2,332h-7.7v-52.1h7.7V332z"/>
<path d="M505.1,279.9h7.7v6c4.1-4.7,9.6-7.1,16.3-7.1c12,0,20.2,8.2,20.2,20.2v33h-7.6v-31.4c0-9.1-5.5-15-14.6-15
	c-5.9-0.2-11.4,2.9-14.3,8V332h-7.7L505.1,279.9z"/>
<path d="M585.6,279.1c13.8,0,24.7,12,24.7,26.8v2.4h-42.7c1.1,10.3,9.2,17.9,19.5,17.9c5.4,0,10.8-1.8,14.3-4.8l4.8,5.1
	c-5.5,4.3-12.4,6.6-19.4,6.5c-14.7,0.2-26.7-11.6-26.8-26.3c0-0.2,0-0.5,0-0.7C559.9,291.2,571,279.1,585.6,279.1z M567.7,302.2
	h34.8c-1.3-9.3-8.5-16.3-17.2-16.3C576.1,285.9,569.1,292.8,567.7,302.2z"/>
<path d="M620.8,279.9h7.7v7.2c3-5.2,8.5-8.4,14.5-8.3c1.7,0,3.4,0.2,5,0.7v7.1c-1.7-0.6-3.6-0.9-5.4-0.9c-5.6,0-11,2.8-14,10.6V332
	h-7.7L620.8,279.9z"/>
<path d="M679.4,314c7.5,8,16,12.1,25.5,12.1c11.4,0,19.5-5.9,19.5-14.4c0-7.4-4.7-11.1-16.7-13.1l-10.5-1.6
	c-14.1-2.3-20.5-8.2-20.5-18.4c0-12.1,10.3-20.3,25.6-20.3c10.4,0.1,20.5,3.5,28.7,9.7l-4.6,6.2c-8-6-16.2-9-24.4-9
	c-10.4,0-17.5,5.2-17.5,12.8c0,6.8,4.2,10.1,14.8,11.8l10.4,1.7c16,2.6,22.8,8.6,22.8,20c0,12.8-11.4,21.7-27.9,21.7
	c-11.6,0-22.7-4.9-30.5-13.5L679.4,314z"/>
<path d="M746.2,286.5H735v-6.5h11.2v-13.2l7.6-2v15.2h15.7v6.5h-15.7v31.9c0,5.6,2.3,7.8,8,7.8c2.6,0.1,5.2-0.4,7.6-1.4v6.8
	c-3,0.9-6,1.4-9.2,1.4c-9.2,0-14-4.5-14-12.6L746.2,286.5z"/>
<path d="M800.3,278.9c14.8,0,26.5,11.9,26.5,27S815.1,333,800.3,333s-26.6-11.9-26.6-27.1S785.5,278.9,800.3,278.9z M800.3,285.8
	c-10.6,0-19,8.8-19,20.2s8.3,20.3,19,20.3s18.9-8.9,18.9-20.3S810.9,285.8,800.3,285.8z"/>
<path d="M837.5,279.9h7.7v7.2c3-5.2,8.5-8.4,14.5-8.3c1.7,0,3.4,0.2,5,0.7v7.1c-1.7-0.6-3.6-0.9-5.4-0.9c-5.6,0-11,2.8-14,10.6V332
	h-7.7L837.5,279.9z"/>
<path d="M868.2,317.3c0-10.6,9.2-15.9,20.8-15.9c5.3,0,10.5,1.2,15.3,3.5V298c0-8.4-4.8-12.6-13.8-12.6c-5.3,0-10.4,1.6-16.3,4.6
	l-2.9-5.9c6.9-3.3,13.1-5.2,20-5.2c13.1,0,20.6,6.4,20.6,18.1v35h-7.5v-5.1c-4.7,4-10.7,6.1-16.8,6
	C876.2,333,868.2,326.6,868.2,317.3z M888.8,326.9c5.8,0.2,11.4-2,15.5-6V311c-4.2-2.7-8.9-4.1-15.1-4.1c-8,0-13.6,3.9-13.6,10.1
	C875.6,323.1,881.2,326.9,888.8,326.9z"/>
<path d="M922.4,305.7c0-15,11.3-26.7,26.2-26.7c6,0,11.9,2.2,16.4,6.1v-5.2h7.6v52.9c0,13.5-8.1,20.8-22.5,20.8
	c-7.1,0-14.2-1.9-20.4-5.4l3.3-6c6,3.2,11.1,4.8,16.7,4.8c9.9,0,15.1-4.8,15.1-13.9v-6.7c-4.6,3.9-10.5,6-16.5,6
	C933.9,332.5,922.4,320.7,922.4,305.7z M949,325.7c6.7,0,12.4-2.7,15.9-7.2v-25.6c-4-4.6-9.8-7.2-15.9-7.1c-10.8,0-19,8.6-19,19.9
	S938.3,325.7,949,325.7L949,325.7z"/>
<path d="M1009,279.1c13.8,0,24.7,12,24.7,26.8v2.4h-42.8c1.1,10.3,9.2,17.9,19.5,17.9c5.4,0,10.8-1.8,14.4-4.8l4.8,5.1
	c-5.5,4.3-12.4,6.6-19.5,6.5c-14.7,0.2-26.7-11.6-26.8-26.3c0-0.2,0-0.5,0-0.7C983.3,291.2,994.4,279.1,1009,279.1z M991.1,302.2
	h34.8c-1.4-9.3-8.5-16.3-17.2-16.3C999.5,285.9,992.5,292.8,991.1,302.2L991.1,302.2z"/>
<path d="M556.8,98.8c0,11.9,7.2,17.7,20.2,17.7c4-0.1,8-0.7,11.9-1.7V101c-2.5,0.8-5.1,1.2-7.7,1.2c-5.4,0-7.4-1.7-7.4-6.7V74.3
	h15.6V60.1h-15.6v-18l-17,3.7v14.3h-11.3v14.2h11.2V98.8z M503.8,99.1c0-3.7,3.7-5.5,9.2-5.5c3.4,0,6.8,0.4,10.1,1.3v7.2
	c-3.3,1.8-6.9,2.7-10.6,2.6C507.1,104.7,503.8,102.6,503.8,99.1 M509,116.7c6,0,10.8-1.3,15.4-4.3v3.4h16.8V80.1
	c0-13.6-9.2-21-24.4-21c-8.5,0-16.9,2-26,6.1l6.2,12.5c6.5-2.7,12-4.4,16.8-4.4c7,0,10.6,2.7,10.6,8.3v2.7
	c-4.1-1.1-8.4-1.6-12.6-1.6c-14.3,0-22.9,6-22.9,16.7C488.9,109.2,496.7,116.7,509,116.7 M416.7,115.7h18.1V86.9H465v28.8h18.1V42.1
	H465v28.3h-30.3V42.1h-18.1L416.7,115.7z M347.7,87.9c0-8,6.3-14.1,14.6-14.1c4.3-0.1,8.5,1.4,11.8,4.3v19.4
	c-3.2,3-7.4,4.6-11.8,4.5C354.1,102,347.7,95.9,347.7,87.9 M374.3,115.8h16.8V38.4l-17,3.7V63c-4.3-2.5-9.2-3.7-14.2-3.7
	c-16.2,0-28.9,12.5-28.9,28.5c-0.2,15.6,12.3,28.4,27.9,28.6c0.2,0,0.3,0,0.5,0c5.4,0,10.6-1.7,14.9-4.8L374.3,115.8z M297.1,73
	c5.4,0,9.9,3.5,11.7,8.8h-23.2C287.2,76.3,291.4,73,297.1,73 M268.4,88c0,16.2,13.2,28.8,30.3,28.8c9.4,0,16.2-2.5,23.2-8.4
	l-11.2-10c-2.6,2.7-6.5,4.2-11.1,4.2c-5.9,0.2-11.4-3.3-13.7-8.8h39.6v-4.2c0-17.7-11.9-30.4-28.1-30.4c-15.8-0.2-28.8,12.4-29,28.2
	C268.4,87.5,268.4,87.8,268.4,88 M239,57.6c6,0,9.4,3.8,9.4,8.3s-3.4,8.3-9.4,8.3h-17.8V57.6H239z M203,115.7h18.1V88.9h13.8
	l13.9,26.8H269l-16.2-29.4c8.4-3.4,13.9-11.6,13.9-20.7c0-13.2-10.4-23.5-26-23.5h-37.6L203,115.7z"/>
<path class="st0" d="M50.2,70.3L23.5,80c0.3,4.3,1.1,8.5,2.1,12.6L51,83.4C50.2,79.1,49.9,74.7,50.2,70.3"/>
<path class="st0" d="M167.9,40.9c-1.9-3.8-4-7.5-6.5-11l-26.6,9.7c3.1,3.1,5.7,6.7,7.8,10.5L167.9,40.9z"/>
<path class="st1" d="M109.3,33.3c5.4,2.5,10.2,6,14.4,10.2l26.6-9.7C125.9-0.3,78.4-8.3,44.1,16.1C22.4,31.6,10.4,57.4,12.4,84.1
	l26.6-9.7c2-27.2,25.7-47.6,52.9-45.5C98,29.3,103.9,30.8,109.3,33.3"/>
<path class="st1" d="M27.3,92L2,101.3c2.3,9.3,6.4,18,11.9,25.8l26.6-9.7C33.7,110.4,29.1,101.6,27.3,92"/>
<path class="st1" d="M137.7,82c-0.4,5.9-1.9,11.7-4.5,17.1c-11.5,24.8-41,35.5-65.8,24c-5.4-2.5-10.3-6-14.5-10.3l-26.6,9.7
	c24.4,34.2,71.9,42.2,106.1,17.9c10.8-7.7,19.3-18,24.9-30c5.6-11.9,7.9-25,6.9-38.1L137.7,82z"/>
<path class="st1" d="M144.2,49.5l-25.3,9.2c4.7,8.5,6.9,18.2,6.2,27.9l26.6-9.7C151,67.4,148.4,58.1,144.2,49.5"/>
<path class="st2" d="M50.1,75.7c-0.1-1.8,0-3.6,0.1-5.4L23.5,80c0.1,1.7,0.4,3.4,0.6,5.1L50.1,75.7z"/>
<path class="st2" d="M164,33.8c-0.8-1.4-1.7-2.7-2.6-4l-26.6,9.7c1.2,1.2,2.3,2.5,3.3,3.8L164,33.8z"/>
<path class="st0" d="M26.5,122.5c2.1,2.9,4.3,5.6,6.8,8.2l28.9-10.6c-3.3-2.1-6.4-4.5-9.2-7.4L26.5,122.5z M164.3,72.3L137.7,82
	c-0.3,3.9-1,7.7-2.2,11.4l28.9-10.6C164.6,79.4,164.6,75.8,164.3,72.3"/>
</svg>
